<svg fill="none" height="24" viewBox="0 0 24 24" width="24" xmlns="http://www.w3.org/2000/svg"><g fill="#292d32"><path d="m17.8701 21.8698c-.31 0-.62-.08-.9-.25l-4.01-2.3801c-.42-.01-.84-.0399-1.24-.0999-.27-.04-.5-.2201-.6-.4801s-.05-.54.13-.75c.66-.77 1-1.69 1-2.67 0-2.42-2.13-4.39-4.75002-4.39-.98 0-1.92001.2701-2.71001.7901-.22.14-.49.16-.73.05-.23-.11-.39999-.3301-.42999-.5901-.03-.28-.05-.5599-.05-.8499 0-4.96004 4.3-8.99003 9.58002-8.99003 5.28 0 9.58 4.02999 9.58 8.99003 0 2.72-1.26 5.2199-3.48 6.9299l.34 2.7201c.08.68-.22 1.32-.79 1.69-.28.18-.61.28-.94.28zm-4.72-4.1401c.14-.01.28.0301.4.1101l4.19 2.49c.11.07.2.04.26 0 .05-.03.13-.11.11-.25l-.39-3.1601c-.03-.28.09-.5499.31-.7099 2.04-1.43 3.21-3.6101 3.21-5.9801 0-4.12996-3.62-7.48995-8.08-7.48995-4.29002 0-7.81003 3.12004-8.07003 7.04004.75-.29 1.56001-.45002 2.40001-.45002 3.45002 0 6.25002 2.63993 6.25002 5.88993.01.88-.2 1.73-.59 2.51z"/><path d="m4.57977 22.7498c-.26 0-.51-.07-.74-.22-.45-.29-.68999-.79-.62999-1.32l.19999-1.54c-1.35-1.1-2.15-2.73-2.15-4.44 0-1.95 1.02001-3.77 2.73001-4.86 1.03-.66999 2.24999-1.02996 3.51999-1.02996 3.45003 0 6.25003 2.63996 6.25003 5.88996 0 1.32-.48 2.62-1.36 3.65-1.13 1.37-2.82003 2.17-4.68003 2.23l-2.44 1.45c-.22.13-.46.19-.7.19zm2.92-11.91c-.98 0-1.92001.27-2.71001.79-1.28.82-2.03999 2.16-2.03999 3.6 0 1.39.68001 2.66 1.88001 3.48.23.16.34999.43.31999.71l-.22 1.71 2.39-1.42c.12-.07.25-.11.38-.11 1.47 0 2.86003-.63 3.74003-1.7.66-.78 1.01-1.7 1.01-2.68 0-2.41-2.13-4.38-4.75003-4.38z"/></g></svg>